<?xml version="1.0" standalone="no"?>
<!DOCTYPE svg PUBLIC "-//W3C//DTD SVG 20010904//EN"
 "http://www.w3.org/TR/2001/REC-SVG-20010904/DTD/svg10.dtd">
<svg version="1.0" xmlns="http://www.w3.org/2000/svg"
 width="512.000000pt" height="512.000000pt" viewBox="0 0 512.000000 512.000000"
 preserveAspectRatio="xMidYMid meet">

<g transform="translate(0.000000,512.000000) scale(0.100000,-0.100000)"
fill="#000000" stroke="none">
<path d="M2520 5022 c-67 -34 -62 -108 11 -156 22 -15 52 -49 69 -80 34 -59
54 -80 87 -90 31 -10 78 17 93 53 10 26 10 37 -5 73 -34 87 -132 190 -200 212
-11 3 -35 -2 -55 -12z"/>
<path d="M2143 5001 c-74 -54 -152 -170 -153 -228 0 -38 42 -77 83 -77 43 0
69 21 97 80 12 23 46 63 76 89 48 41 54 51 54 84 0 80 -82 107 -157 52z"/>
<path d="M4393 4845 c-26 -18 -46 -75 -37 -101 4 -10 18 -36 31 -57 19 -30 27
-36 41 -28 9 5 43 14 74 21 64 14 61 6 37 102 -17 67 -93 100 -146 63z"/>
<path d="M4719 4850 c-15 -9 -15 -16 0 -91 16 -81 17 -82 54 -95 l37 -13 25
43 c33 57 33 105 -1 140 -28 27 -82 35 -115 16z"/>
<path d="M2075 4488 c-33 -39 -29 -78 13 -121 36 -37 135 -85 194 -93 43 -6
50 -4 77 24 18 17 31 41 31 55 0 38 -36 76 -86 88 -24 6 -65 27 -91 45 -63 45
-102 45 -138 2z"/>
<path d="M2676 4499 c-14 -11 -26 -29 -26 -40 0 -12 -9 -21 -25 -25 -34 -8
-65 -50 -65 -86 0 -31 38 -78 64 -78 9 0 22 -16 30 -35 29 -69 116 -71 149 -2
18 36 20 37 76 37 47 0 61 4 78 23 30 32 36 62 19 95 -18 35 -54 52 -112 52
-33 0 -46 4 -51 18 -21 60 -87 80 -137 41z"/>
<path d="M4497 4506 c-180 -64 -193 -222 -25 -297 42 -18 71 -23 139 -24 76 0
92 3 144 30 73 38 105 81 105 143 0 39 -5 50 -43 87 -29 30 -59 48 -96 59 -66
19 -172 20 -224 2z"/>
<path d="M3191 4414 c-40 -33 -43 -83 -6 -119 23 -24 30 -25 145 -25 106 0
122 2 140 20 43 43 34 110 -20 137 -15 8 -65 13 -127 13 -95 0 -104 -2 -132
-26z"/>
<path d="M3724 4431 c-55 -24 -70 -96 -29 -136 23 -24 30 -25 145 -25 115 0
122 1 145 25 32 31 32 75 1 112 -23 27 -28 28 -133 30 -59 2 -118 -1 -129 -6z"/>
<path d="M2675 3985 c-24 -23 -25 -30 -25 -145 0 -115 1 -122 25 -145 31 -32
75 -32 112 -1 28 24 28 25 28 146 0 121 0 122 -28 146 -37 31 -81 31 -112 -1z"/>
<path d="M312 3724 c-65 -32 -108 -84 -129 -153 -29 -101 0 -197 79 -265 82
-71 -70 -66 2115 -66 l1973 0 0 158 c0 136 -3 163 -21 202 -27 60 -64 98 -124
126 l-50 24 -582 0 -583 0 -6 -27 c-30 -138 -127 -223 -254 -223 -125 0 -250
110 -250 220 l0 30 -1058 0 -1058 0 -52 -26z"/>
<path d="M170 1732 c0 -1570 -4 -1477 60 -1554 17 -20 53 -48 82 -62 l52 -26
2111 0 2111 0 52 26 c28 14 66 43 83 65 55 70 59 100 59 446 l0 313 -84 0 -85
0 -3 -283 -3 -284 -27 -40 c-53 -80 145 -73 -2101 -73 l-2006 0 -20 26 c-29
37 -27 85 5 115 l26 24 1979 3 1979 2 0 255 0 255 -207 0 c-145 0 -226 5 -268
15 -330 78 -529 403 -445 730 50 194 195 350 395 421 41 15 95 19 285 23 l235
6 3 298 2 297 -1970 0 c-2105 0 -2016 -2 -2034 45 -13 35 -6 76 19 100 l24 25
1995 0 c1382 0 2003 -3 2023 -11 42 -15 92 -68 103 -109 6 -19 10 -172 10
-342 l0 -308 85 0 86 0 -3 378 c-3 367 -4 378 -25 418 -28 53 -78 102 -123
123 -32 14 -237 16 -2165 21 l-2130 5 -54 23 c-30 13 -67 32 -83 43 l-28 20 0
-1429z"/>
<path d="M3993 1950 c-183 -43 -324 -224 -323 -415 1 -195 142 -371 331 -414
26 -6 219 -11 467 -11 l424 0 29 29 29 29 0 362 c0 379 -3 408 -45 424 -24 9
-874 5 -912 -4z m190 -174 c169 -61 222 -286 98 -413 -56 -58 -104 -78 -186
-78 -80 1 -130 22 -181 77 -52 55 -68 95 -69 173 0 82 20 130 78 186 64 63
173 86 260 55z"/>
<path d="M4042 1600 c-46 -43 -37 -107 19 -139 51 -29 119 14 119 76 0 70 -87
110 -138 63z"/>
</g>
</svg>
