<?xml version="1.0" standalone="no"?>
<!DOCTYPE svg PUBLIC "-//W3C//DTD SVG 20010904//EN"
 "http://www.w3.org/TR/2001/REC-SVG-20010904/DTD/svg10.dtd">
<svg version="1.0" xmlns="http://www.w3.org/2000/svg"
 width="512.000000pt" height="512.000000pt" viewBox="0 0 512.000000 512.000000"
 preserveAspectRatio="xMidYMid meet">

<g transform="translate(0.000000,512.000000) scale(0.100000,-0.100000)"
fill="#000000" stroke="none">
<path d="M403 4461 c-99 -34 -170 -99 -216 -198 l-22 -48 0 -1335 0 -1335 27
-57 c34 -73 103 -142 176 -176 l57 -27 748 -3 747 -3 -6 -42 c-21 -160 -66
-257 -176 -384 l-41 -48 -238 -5 c-220 -5 -240 -7 -265 -26 -53 -39 -69 -71
-69 -134 0 -63 16 -95 69 -134 27 -21 30 -21 1366 -21 1336 0 1339 0 1366 21
53 39 69 71 69 134 0 63 -16 95 -69 134 -25 19 -45 21 -265 26 l-238 5 -41 48
c-110 127 -155 224 -176 384 l-6 42 748 3 747 3 67 33 c77 37 128 90 167 172
l26 55 0 1335 0 1335 -27 57 c-34 73 -103 142 -176 176 l-57 27 -2120 2
c-2020 2 -2122 2 -2172 -16z m1094 -792 c15 -5 63 -44 105 -87 l78 -76 83 81
c89 87 121 102 194 88 49 -9 109 -69 118 -118 14 -73 -1 -105 -88 -194 l-81
-83 81 -83 c87 -89 102 -121 88 -194 -9 -49 -69 -109 -118 -118 -73 -14 -105
1 -194 88 l-83 81 -83 -81 c-89 -87 -121 -102 -194 -88 -49 9 -109 69 -118
118 -14 73 1 105 88 194 l81 83 -81 83 c-62 63 -83 92 -88 120 -24 128 92 231
212 186z m1760 0 c15 -5 63 -44 105 -87 l78 -76 83 81 c89 87 121 102 194 88
49 -9 109 -69 118 -118 14 -73 -1 -105 -88 -194 l-81 -83 81 -83 c87 -89 102
-121 88 -194 -9 -49 -69 -109 -118 -118 -73 -14 -105 1 -194 88 l-83 81 -83
-81 c-89 -87 -121 -102 -194 -88 -49 9 -109 69 -118 118 -14 73 1 105 88 194
l81 83 -81 83 c-62 63 -83 92 -88 120 -24 128 92 231 212 186z m-1158 -1179
l141 -69 102 50 c182 88 256 87 438 -1 l100 -49 141 69 c92 45 153 70 176 70
135 0 212 -158 126 -261 -34 -40 -300 -173 -380 -189 -81 -17 -155 -2 -280 59
l-103 50 -102 -50 c-126 -61 -200 -76 -281 -59 -80 16 -346 149 -380 189 -86
102 -11 259 124 261 26 0 79 -21 178 -70z m790 -1317 c13 -118 46 -229 92
-310 16 -29 29 -55 29 -58 0 -3 -202 -5 -450 -5 -247 0 -450 2 -450 5 0 3 13
29 29 58 46 81 79 192 92 310 l12 107 317 0 317 0 12 -107z"/>
</g>
</svg>
