<?xml version="1.0" standalone="no"?>
<!DOCTYPE svg PUBLIC "-//W3C//DTD SVG 20010904//EN"
 "http://www.w3.org/TR/2001/REC-SVG-20010904/DTD/svg10.dtd">
<svg version="1.0" xmlns="http://www.w3.org/2000/svg"
 width="512.000000pt" height="512.000000pt" viewBox="0 0 512.000000 512.000000"
 preserveAspectRatio="xMidYMid meet">

<g transform="translate(0.000000,512.000000) scale(0.100000,-0.100000)"
fill="#000000" stroke="none">
<path d="M426 4986 c-51 -19 -380 -343 -407 -401 -24 -51 -24 -109 0 -161 26
-56 329 -366 385 -393 124 -60 273 20 284 153 2 30 0 69 -6 85 l-11 31 305 0
c167 0 304 -1 304 -3 0 -2 -35 -31 -78 -65 -106 -83 -283 -266 -369 -382 -218
-292 -353 -614 -410 -981 -23 -155 -23 -461 1 -618 73 -481 287 -896 632
-1231 277 -269 599 -449 964 -539 245 -60 258 -61 1397 -61 982 0 1035 -1
1027 -17 -4 -10 -10 -43 -12 -74 -9 -135 115 -234 249 -199 38 10 70 38 223
188 110 109 185 192 197 217 24 51 24 109 0 160 -26 58 -329 368 -387 396
-124 59 -271 -22 -282 -157 -2 -29 0 -67 6 -83 l11 -31 -336 0 -336 0 69 52
c233 176 461 459 600 743 76 155 154 381 154 445 0 99 -77 185 -177 197 -44 5
-61 1 -107 -21 -68 -34 -83 -57 -136 -216 -176 -530 -581 -940 -1100 -1113
-318 -106 -688 -115 -1009 -25 -639 179 -1123 714 -1242 1374 -31 168 -31 440
0 608 106 587 506 1085 1052 1310 372 153 815 167 1199 39 519 -173 926 -584
1099 -1112 53 -158 68 -183 137 -217 46 -22 63 -26 107 -21 99 12 177 98 177
195 0 64 -82 301 -155 451 -283 571 -796 983 -1416 1135 -225 55 -254 56
-1351 56 -958 0 -1010 1 -1002 18 4 9 9 44 11 77 3 48 -1 68 -19 100 -49 83
-154 123 -242 91z"/>
<path d="M2477 3750 c-70 -21 -136 -104 -137 -171 0 -23 -8 -29 -62 -49 -160
-58 -280 -185 -340 -359 -33 -94 -32 -259 2 -346 52 -134 147 -238 279 -304
42 -22 157 -69 256 -106 217 -81 249 -97 298 -144 121 -114 106 -261 -32 -324
-56 -25 -185 -33 -275 -18 -94 16 -167 51 -229 109 -83 79 -144 101 -219 82
-130 -35 -191 -179 -125 -293 59 -100 237 -222 383 -263 59 -16 61 -17 73 -62
21 -81 107 -142 196 -142 71 1 169 77 182 141 4 21 13 31 32 35 62 14 130 39
191 70 417 216 400 800 -29 1054 -36 22 -162 75 -279 119 -116 44 -230 90
-253 103 -48 27 -79 73 -79 119 0 44 35 113 67 135 67 43 208 56 303 28 40
-12 66 -28 101 -65 55 -57 100 -79 161 -79 146 1 241 154 177 286 -32 67 -140
161 -234 205 -44 20 -94 40 -111 44 -28 5 -33 12 -43 50 -27 109 -147 177
-254 145z"/>
</g>
</svg>
